<?xml version="1.0" standalone="no"?>
<!DOCTYPE svg PUBLIC "-//W3C//DTD SVG 20010904//EN"
 "http://www.w3.org/TR/2001/REC-SVG-20010904/DTD/svg10.dtd">
<svg version="1.0" xmlns="http://www.w3.org/2000/svg"
 width="512.000000pt" height="512.000000pt" viewBox="0 0 512.000000 512.000000"
 preserveAspectRatio="xMidYMid meet">
<metadata>
Created by potrace 1.11, written by Peter Selinger 2001-2013
</metadata>
<g transform="translate(0.000000,512.000000) scale(0.100000,-0.100000)"
fill="#000000" stroke="none">
<path d="M0 2560 l0 -2560 2560 0 2560 0 0 2560 0 2560 -2560 0 -2560 0 0
-2560z m1499 325 c80 -44 124 -113 142 -224 11 -71 -4 -167 -36 -231 -83 -165
-317 -200 -445 -68 -122 126 -109 380 24 494 82 70 216 82 315 29z m1543 17
c25 -10 26 -13 16 -42 -9 -26 -14 -30 -32 -25 -46 15 -127 17 -156 5 -58 -24
-74 -97 -32 -143 9 -10 58 -38 108 -62 102 -49 133 -81 141 -145 21 -158 -128
-250 -316 -194 -52 15 -53 16 -47 46 3 18 8 34 11 36 2 2 25 -3 51 -12 124
-42 224 -1 224 93 0 45 -35 78 -135 126 -59 28 -101 55 -114 74 -60 85 -27
196 74 243 44 21 157 21 207 0z m1147 -17 c80 -44 124 -113 142 -224 11 -71
-4 -167 -36 -231 -83 -165 -317 -200 -445 -68 -122 126 -109 380 24 494 82 70
216 82 315 29z m-3776 -219 c31 -134 57 -252 58 -262 0 -11 26 80 58 201 91
344 75 305 125 305 l42 0 52 -217 c28 -120 54 -237 58 -261 6 -40 11 -26 65
185 32 125 62 242 67 258 7 27 13 30 51 33 33 2 42 0 39 -10 -3 -7 -43 -147
-89 -311 l-84 -298 -44 3 -44 3 -53 220 c-30 121 -54 230 -54 242 0 30 -20 40
-21 11 0 -13 -28 -124 -62 -248 l-62 -225 -45 0 -44 0 -71 280 c-40 154 -75
292 -79 308 -6 26 -5 27 37 27 l43 0 57 -244z m1638 212 c105 -61 104 -219 -2
-274 l-30 -15 29 -24 c34 -29 44 -51 72 -162 11 -45 23 -89 26 -98 6 -14 0
-16 -37 -13 -48 3 -41 -9 -84 150 -8 32 -26 70 -39 85 -20 23 -33 27 -90 31
l-66 4 0 -136 0 -136 -40 0 -40 0 0 304 0 305 23 4 c12 3 69 5 127 4 94 -2
110 -5 151 -29z m271 -113 l3 -146 118 146 118 145 51 0 51 0 -19 -22 c-11
-13 -62 -72 -114 -131 l-93 -109 122 -179 122 -179 -49 0 c-43 0 -52 4 -67 28
-10 15 -56 83 -103 151 l-85 124 -28 -34 c-28 -33 -28 -37 -29 -151 l0 -118
-40 0 -40 0 0 310 0 310 40 0 39 0 3 -145z m958 15 l0 -130 150 0 150 0 0 130
0 130 40 0 40 0 0 -310 0 -310 -40 0 -40 0 0 145 0 145 -150 0 -150 0 0 -145
0 -145 -40 0 -40 0 0 310 0 310 40 0 40 0 0 -130z m1405 119 c144 -39 184
-208 72 -306 -45 -39 -96 -56 -174 -57 l-63 -1 0 -122 0 -123 -40 0 -40 0 0
304 0 305 23 4 c46 9 184 6 222 -4z"/>
<path d="M1270 2829 c-120 -69 -147 -302 -48 -415 42 -47 77 -64 138 -64 57 0
93 15 132 57 105 110 81 353 -42 422 -50 28 -132 28 -180 0z"/>
<path d="M3960 2829 c-120 -69 -147 -302 -48 -415 42 -47 77 -64 138 -64 57 0
93 15 132 57 105 110 81 353 -42 422 -50 28 -132 28 -180 0z"/>
<path d="M1848 2844 c-16 -5 -18 -19 -18 -115 l0 -109 55 0 c71 0 132 24 150
61 29 55 12 120 -38 146 -31 15 -119 26 -149 17z"/>
<path d="M4522 2724 l3 -119 45 -3 c106 -7 176 51 167 137 -3 29 -13 52 -31
70 -23 23 -36 26 -106 30 l-81 3 3 -118z"/>
</g>
</svg>
